# xmcd
# 
# Track frame offsets:
#     150
#     21047
#     35017
#     57212
#     69892
#     89930
#     112672
#     122035
#     130837
#     141927
#     154837
#     176742
#     198062
#     214012
#     228392
#     240172
#     257187
#     274022
#     293595
#     312147
# 
# Disc length: 4439
# 
# Revision: 1
# Processed by: cddbd v1.5.2PL0 Copyright (c) Steve Scherf et al.
# Submitted via: BonkEnc v1.0.5
# 
DISCID=16115514
DTITLE=三上寛 - 三上寛ベストアアルバム
DYEAR=1994
DGENRE=Folk/Rock
TTITLE0=馬鹿ぶし
TTITLE1=ものな子守唄
TTITLE2=カラス
TTITLE3=数珠の玉切れる日に
TTITLE4=おど
TTITLE5=なぜ
TTITLE6=ピストル魔の少年
TTITLE7=木
TTITLE8=黒い小さな貨物列車
TTITLE9=小便だらけの湖
TTITLE10=夢は夜ひらく
TTITLE11=夢でよかった
TTITLE12=砂丘
TTITLE13=ブルースは俺のものじゃない
TTITLE14=コップは壊れるだろう
TTITLE15=かけおち
TTITLE16=おととし泣いた夕暮れと
TTITLE17=ギターを持った渡り鳥
TTITLE18=さすらい
TTITLE19=船頭小唄
EXTD=YEAR: 1994
EXTT0=
EXTT1=
EXTT2=
EXTT3=
EXTT4=
EXTT5=
EXTT6=
EXTT7=
EXTT8=
EXTT9=
EXTT10=
EXTT11=
EXTT12=
EXTT13=
EXTT14=
EXTT15=
EXTT16=
EXTT17=
EXTT18=
EXTT19=
PLAYORDER=
